# xmcd
#
# Track frame offsets:
#	150
#	15320
#	28143
#	37303
#	49766
#	65702
#	77477
#	85908
#	94339
#	104404
#	119477
#	125177
#	129980
#	138715
#	145862
#	148675
#	155843
#	161815
#	169282
#	183003
#	197585
#	214163
#	229218
#
# Disc length: 3286 seconds
#
# Revision: 0
# Processed by: cddbd v1.5.2PL0 Copyright (c) Steve Scherf et al.
# Submitted via: EasyCDDAExtractor 16.0.6.1
#
DISCID=5c0cd417
DTITLE=Ζαγοραίος Σπύρος - Στη Σαλονίκη-Σ. Ζαγοραίος
DYEAR=1992
DGENRE=Λαϊκή
TTITLE0=Πρόζα-Γιατί με λες αλήτη [Σ. Ζαγοραίου]
TTITLE1=Σήμερα πάλι [Σ. Ζαγοραίου]
TTITLE2=Έγιναν γκρίζα τα μαλλιά μου [Σ. Ζαγοραίου-Κ. Βίρβου]
TTITLE3=Αλήτης [Σ. Ζαγοραίου]
TTITLE4=Όλες είσθε ίδιες [Κ. Ψυχογιού-Γ. Λαδόπουλου]
TTITLE5=Ηλιοβασίλεμα [παλιό λαϊκό]
TTITLE6=Κάτω απ' το σβηστό φανάρι [Γ. Μητσάκη]
TTITLE7=Πήρα τη στράτα κι έρχομαι [παλιό λαϊκό]
TTITLE8=Πέφτουν της βροχής οι στάλες [Β. Τσιτσάνη]
TTITLE9=Με λεν' μπερμπάντη και μπεκρή [παλιό λαϊκό]
TTITLE10=Δεν ξανακάνω φυλακή [παλιό λαϊκό]
TTITLE11=Μέσ' στης πόλης το χαμάμ [Σ. Ζαγοραίου]
TTITLE12=Μη σε βασανίζει η φτώχεια [παλιό λαϊκό]
TTITLE13=Ντότα πρες κοτσίδετε [παλιό λαϊκό]
TTITLE14=Έλα να σε κάνω μάκια [παλιό λαϊκό]
TTITLE15=Μιά Καλυβιώτισα μικρή [παλιό λαϊκό]
TTITLE16=Μάλωσα εχθές το βράδυ [παλιό λαϊκό]
TTITLE17=Μιά ψαροπούλα [παλιό λαϊκό]
TTITLE18=Καροτσέρι τράβα [παλιό λαϊκό]
TTITLE19=Πάρτε κύριε λαχεία [Δ. Γκούτη]
TTITLE20=Εκεί που μένουν οι νεκροί [Δ. Γκούτη-Σ. Ζαγοραίου]
TTITLE21=Εγώ με τη δικιά μου [Δ. Κορδατζή-Α. Αντωνάκου]
TTITLE22=Πρόζα-Ο γέρο ναυτικός [Κ. Καπλάνη-Σ. Περιστεράκη]
EXTD=
EXTT0=
EXTT1=
EXTT2=
EXTT3=
EXTT4=
EXTT5=
EXTT6=
EXTT7=
EXTT8=
EXTT9=
EXTT10=
EXTT11=
EXTT12=
EXTT13=
EXTT14=
EXTT15=
EXTT16=
EXTT17=
EXTT18=
EXTT19=
EXTT20=
EXTT21=
EXTT22=
PLAYORDER=
